<svg width="231" height="351" viewBox="0 0 231 351" fill="none" xmlns="http://www.w3.org/2000/svg">
<path d="M70.6732 46.0645L151.891 7.59439C152.507 7.3027 153.168 7.21765 153.791 6.97864C147.01 4.30081 139.381 4.38989 132.632 7.59439L51.4098 46.0645C39.6735 51.6349 32.2192 63.4563 32.2192 76.3958V277.136H51.4786V76.3958C51.4786 63.4563 58.9328 51.6349 70.6732 46.0645Z" fill="white"/>
<path d="M161.075 224.358C169.729 222.729 177.183 216.988 180.955 208.935L223.962 116.92C226.62 111.264 226.535 104.754 223.792 99.1838L211.541 74.8524C207.514 66.7986 199.375 61.6576 190.378 61.6576H187.724L192.091 48.8923C194.919 40.6684 191.836 31.5005 184.552 26.6998L158.847 9.48227C157.255 8.41275 155.533 7.66333 153.791 6.97867C153.167 7.21768 152.507 7.30273 151.891 7.59442L70.6731 46.0645C58.9327 51.6349 51.4785 63.4563 51.4785 76.3959V277.136H153.107H153.281V225.816L161.075 224.358Z" fill="#FFCC99"/>
<path d="M31.2594 335.482V292.215C31.2594 283.902 38.0289 277.136 46.3379 277.136H32.2195H27.0785C18.7695 277.136 12 283.902 12 292.215V335.482C12 343.791 18.7695 350.56 27.0785 350.56H46.3379C38.0289 350.56 31.2594 343.791 31.2594 335.482Z" fill="white"/>
<path d="M153.107 277.136H32.2192V76.3959C32.2192 63.4564 39.6735 51.6349 51.4098 46.0645L132.632 7.59444C141.115 3.56756 151.053 4.25219 158.847 9.48228L184.552 26.6998C191.836 31.5005 194.919 40.6684 192.091 48.8923L187.724 61.6576L170.673 111.435L161.764 137.48C158.592 146.648 149.939 152.818 140.256 152.818H96.9897C90.3944 152.818 84.9942 147.421 84.9942 140.737V139.023C84.9942 123.69 97.4191 111.264 112.757 111.264H118.668" stroke="#231F20" stroke-width="9" stroke-miterlimit="10"/>
<path d="M187.635 61.6576H190.378C199.376 61.6576 207.515 66.7986 211.541 74.8524L223.792 99.1838C226.535 104.754 226.62 111.264 223.962 116.92L180.955 208.935C177.183 216.988 169.729 222.729 161.076 224.358L153.281 225.816V277.136" stroke="#231F20" stroke-width="9" stroke-miterlimit="10"/>
<path d="M170.673 111.435H190.977" stroke="#231F20" stroke-width="9" stroke-miterlimit="10"/>
<path d="M88.7661 149.65L104.444 164.813C111.898 172.008 116.095 181.861 116.095 192.143V211.937" stroke="#231F20" stroke-width="9" stroke-miterlimit="10"/>
<rect x="4" y="275" width="169" height="72" rx="16" fill="white" stroke="#231F20" stroke-width="8"/>
<rect x="24" y="279" width="145" height="64" rx="10" fill="#66CC99"/>
</svg>
